<?xml version="1.0" encoding="UTF-8"?>
<svg version="1.1" xmlns="http://www.w3.org/2000/svg" width="372" height="594">
<path d="M0 0 C2.37691488 2.10077779 4.72688366 4.2284676 7.0625 6.375 C7.90425781 7.14457031 8.74601562 7.91414063 9.61328125 8.70703125 C28.33670601 26.63229936 43.42012083 51.0398797 52.0625 75.375 C52.28389648 75.99810059 52.50529297 76.62120117 52.73339844 77.26318359 C58.30113045 93.21011647 62.15648617 110.39799498 62.265625 127.328125 C62.27268463 128.06185837 62.27974426 128.79559174 62.28701782 129.55155945 C62.51851922 160.69630968 62.51851922 160.69630968 59.0625 175.375 C58.86914062 176.20918457 58.67578125 177.04336914 58.4765625 177.90283203 C55.21241978 191.48075904 50.17863234 203.85961823 44.0625 216.375 C43.47524078 217.58853746 42.88834757 218.80225208 42.30175781 220.01611328 C30.84500141 243.67400888 18.07798032 266.09865675 3.59277344 288.04931641 C1.22760712 291.64385602 -1.10480261 295.25934029 -3.4375 298.875 C-6.31302205 303.32594942 -9.19470256 307.77271862 -12.08984375 312.2109375 C-22.18297228 327.68696736 -32.24500271 343.19241969 -41.61181641 359.12255859 C-42.57419985 360.75772427 -43.54054249 362.39056178 -44.50927734 364.02197266 C-78.14462875 420.76791161 -104.45279923 481.46913237 -116.5078125 546.56884766 C-116.9375 548.375 -116.9375 548.375 -117.9375 549.375 C-119.79037502 549.44726502 -121.64583878 549.4588122 -123.5 549.4375 C-124.51191406 549.42847656 -125.52382812 549.41945313 -126.56640625 549.41015625 C-127.74009766 549.39275391 -127.74009766 549.39275391 -128.9375 549.375 C-130.32211031 545.37799472 -131.46561315 541.40960276 -132.41796875 537.2890625 C-132.69116943 536.12334717 -132.96437012 534.95763184 -133.24584961 533.7565918 C-133.53596924 532.5169165 -133.82608887 531.27724121 -134.125 530 C-137.29226807 516.65511804 -140.86798951 503.47505365 -144.9375 490.375 C-145.2267334 489.43479004 -145.5159668 488.49458008 -145.81396484 487.52587891 C-154.9018144 458.26731418 -167.28650004 430.49975077 -181.03381348 403.17456055 C-181.87434124 401.5007715 -182.70843094 399.82375369 -183.54199219 398.14648438 C-191.20712315 382.75558859 -199.96883103 368.11188366 -209.00732422 353.50390625 C-210.6670888 350.81334934 -212.31072043 348.114484 -213.94140625 345.40625 C-220.74959557 334.10855748 -227.94497431 323.07672317 -235.18310547 312.05078125 C-238.98300092 306.25522682 -242.74777486 300.43713583 -246.49804688 294.609375 C-247.51047708 293.03784154 -248.52498887 291.46764812 -249.54101562 289.8984375 C-258.77226832 275.63098812 -267.53658551 261.14636992 -275.9375 246.375 C-276.61308564 245.19236405 -277.28870503 244.00974737 -277.96435547 242.82714844 C-290.30916747 221.17430989 -301.12434236 199.78057351 -306.9375 175.375 C-307.20433594 174.30040527 -307.20433594 174.30040527 -307.4765625 173.20410156 C-314.69938754 142.80804619 -310.91673668 107.60094496 -300.9375 78.375 C-300.71868164 77.71628906 -300.49986328 77.05757813 -300.27441406 76.37890625 C-285.45009487 32.22868422 -250.723846 -4.87372573 -209.55761719 -25.83691406 C-142.26329162 -58.98589956 -56.96427095 -49.2758857 0 0 Z " fill="#007EFE" transform="translate(309.9375,44.625)"/>
<path d="M0 0 C2.37691488 2.10077779 4.72688366 4.2284676 7.0625 6.375 C7.90425781 7.14457031 8.74601562 7.91414063 9.61328125 8.70703125 C28.33670601 26.63229936 43.42012083 51.0398797 52.0625 75.375 C52.28389648 75.99810059 52.50529297 76.62120117 52.73339844 77.26318359 C58.30113045 93.21011647 62.15648617 110.39799498 62.265625 127.328125 C62.27268463 128.06185837 62.27974426 128.79559174 62.28701782 129.55155945 C62.51851922 160.69630968 62.51851922 160.69630968 59.0625 175.375 C58.86914062 176.20918457 58.67578125 177.04336914 58.4765625 177.90283203 C55.21241978 191.48075904 50.17863234 203.85961823 44.0625 216.375 C43.47524078 217.58853746 42.88834757 218.80225208 42.30175781 220.01611328 C30.84500141 243.67400888 18.07798032 266.09865675 3.59277344 288.04931641 C1.22760712 291.64385602 -1.10480261 295.25934029 -3.4375 298.875 C-6.31302205 303.32594942 -9.19470256 307.77271862 -12.08984375 312.2109375 C-22.18297228 327.68696736 -32.24500271 343.19241969 -41.61181641 359.12255859 C-42.57419985 360.75772427 -43.54054249 362.39056178 -44.50927734 364.02197266 C-78.14462875 420.76791161 -104.45279923 481.46913237 -116.5078125 546.56884766 C-116.9375 548.375 -116.9375 548.375 -117.9375 549.375 C-119.79037502 549.44726502 -121.64583878 549.4588122 -123.5 549.4375 C-124.51191406 549.42847656 -125.52382812 549.41945313 -126.56640625 549.41015625 C-127.74009766 549.39275391 -127.74009766 549.39275391 -128.9375 549.375 C-130.32211031 545.37799472 -131.46561315 541.40960276 -132.41796875 537.2890625 C-132.69116943 536.12334717 -132.96437012 534.95763184 -133.24584961 533.7565918 C-133.53596924 532.5169165 -133.82608887 531.27724121 -134.125 530 C-137.29226807 516.65511804 -140.86798951 503.47505365 -144.9375 490.375 C-145.2267334 489.43479004 -145.5159668 488.49458008 -145.81396484 487.52587891 C-154.9018144 458.26731418 -167.28650004 430.49975077 -181.03381348 403.17456055 C-181.87434124 401.5007715 -182.70843094 399.82375369 -183.54199219 398.14648438 C-191.20712315 382.75558859 -199.96883103 368.11188366 -209.00732422 353.50390625 C-210.6670888 350.81334934 -212.31072043 348.114484 -213.94140625 345.40625 C-220.74959557 334.10855748 -227.94497431 323.07672317 -235.18310547 312.05078125 C-238.98300092 306.25522682 -242.74777486 300.43713583 -246.49804688 294.609375 C-247.51047708 293.03784154 -248.52498887 291.46764812 -249.54101562 289.8984375 C-258.77226832 275.63098812 -267.53658551 261.14636992 -275.9375 246.375 C-276.61308564 245.19236405 -277.28870503 244.00974737 -277.96435547 242.82714844 C-290.30916747 221.17430989 -301.12434236 199.78057351 -306.9375 175.375 C-307.20433594 174.30040527 -307.20433594 174.30040527 -307.4765625 173.20410156 C-314.69938754 142.80804619 -310.91673668 107.60094496 -300.9375 78.375 C-300.71868164 77.71628906 -300.49986328 77.05757813 -300.27441406 76.37890625 C-285.45009487 32.22868422 -250.723846 -4.87372573 -209.55761719 -25.83691406 C-142.26329162 -58.98589956 -56.96427095 -49.2758857 0 0 Z M-253.9375 24.375 C-257.75613138 28.92459053 -261.37001647 33.62734975 -264.9375 38.375 C-265.576875 39.21933594 -266.21625 40.06367187 -266.875 40.93359375 C-286.25130853 67.53116542 -297.40271178 100.29187356 -297.19824219 133.20361328 C-297.18754454 135.24151594 -297.19819771 137.27853041 -297.2109375 139.31640625 C-297.24990164 176.59191204 -282.99874979 207.75065853 -264.67431641 239.375 C-262.92266005 242.40063301 -261.18528543 245.43415008 -259.44921875 248.46875 C-252.5051086 260.55181105 -245.22951575 272.34448245 -237.53320312 283.96142578 C-234.87563488 287.98111973 -232.25030126 292.0216859 -229.625 296.0625 C-229.09640381 296.87565674 -228.56780762 297.68881348 -228.02319336 298.52661133 C-205.4328759 333.31698088 -183.58342997 368.27702228 -164.9375 405.375 C-164.4209082 406.39352051 -163.90431641 407.41204102 -163.37207031 408.46142578 C-151.57308849 431.82825973 -142.18819449 456.1395474 -133.875 480.9375 C-133.53890213 481.93463013 -133.53890213 481.93463013 -133.1960144 482.9519043 C-130.49209006 491.01684363 -128.13646013 499.08042675 -126.28392029 507.38392639 C-125.89407221 509.06241214 -125.42283185 510.72159475 -124.9375 512.375 C-124.2775 512.705 -123.6175 513.035 -122.9375 513.375 C-122.65253662 512.33049683 -122.65253662 512.33049683 -122.36181641 511.26489258 C-108.04616554 459.14657788 -87.34851521 408.70350901 -59.19580078 362.45019531 C-57.84478664 360.2220967 -56.51285615 357.98332667 -55.18359375 355.7421875 C-44.96521701 338.54515522 -34.49017468 321.4893893 -23.3046875 304.90234375 C-19.29994926 298.95838164 -15.43657276 292.92216874 -11.56103516 286.89355469 C-9.74948299 284.08333331 -7.92729507 281.2801333 -6.10546875 278.4765625 C6.19790279 259.48792552 17.27187501 240.2036577 27.4375 220 C27.82258728 219.23795258 28.20767456 218.47590515 28.60443115 217.69076538 C46.44998913 182.28264713 55.76793351 142.73823893 46.0625 103.375 C45.76499461 101.96839981 45.4721881 100.56079924 45.18359375 99.15234375 C36.25574919 56.76656622 8.1959875 19.30116944 -27.75 -4.25 C-40.98338117 -12.66756356 -55.08713215 -18.67297787 -69.9375 -23.625 C-70.93201172 -23.95918945 -71.92652344 -24.29337891 -72.95117188 -24.63769531 C-136.15685285 -45.06647073 -209.74127567 -24.96575838 -253.9375 24.375 Z " fill="#000102" transform="translate(309.9375,44.625)"/>
<path d="M0 0 C0.825 0.26683594 1.65 0.53367187 2.5 0.80859375 C11.57733456 3.99984418 19.58003957 9.86671063 26 17 C26.52851563 17.52464844 27.05703125 18.04929687 27.6015625 18.58984375 C39.16913288 30.6415195 43.49562854 46.49109462 43.35620117 62.82763672 C43.16731008 68.88451555 42.08667425 74.29762295 40 80 C39.7215625 80.83789062 39.443125 81.67578125 39.15625 82.5390625 C36.79467332 89.11483205 33.23342969 94.47611696 29 100 C28.38382812 100.82886719 27.76765625 101.65773438 27.1328125 102.51171875 C17.85833025 113.33194804 3.03266062 120.7863972 -11 123 C-28.96094092 124.19693213 -45.8929291 121.17990644 -59.89599609 109.03759766 C-73.14519019 96.89635011 -81.80824821 82.20885879 -83 64 C-83.06574219 63.01902344 -83.13148437 62.03804688 -83.19921875 61.02734375 C-83.75015608 45.39212224 -78.2175741 30.24780792 -67.6875 18.6875 C-50.09148106 0.16100785 -24.80320344 -9.18195512 0 0 Z " fill="#000001" transform="translate(208,109)"/>
</svg>
